<svg width="704" height="93" viewBox="0 0 704 93" fill="none" xmlns="http://www.w3.org/2000/svg">
<path d="M27.136 90.88V16.384H4.11272e-05V0H73.984V16.384H46.72V90.88H27.136ZM88.617 92.416C81.5344 92.416 75.7317 90.7947 71.209 87.552C66.7717 84.224 64.553 79.616 64.553 73.728C64.553 67.6693 66.4304 63.0187 70.185 59.776C74.025 56.448 79.657 54.016 87.081 52.48L109.225 48.128C109.225 43.6907 108.201 40.3627 106.153 38.144C104.19 35.84 101.332 34.688 97.577 34.688C93.9077 34.688 91.049 35.5413 89.001 37.248C86.953 38.8693 85.6304 41.3013 85.033 44.544L65.705 43.648C66.985 36.1387 70.3557 30.464 75.817 26.624C81.3637 22.6987 88.617 20.736 97.577 20.736C107.817 20.736 115.497 23.168 120.617 28.032C125.822 32.896 128.425 40.0213 128.425 49.408V72.832C128.425 74.7947 128.724 76.1173 129.321 76.8C130.004 77.3973 130.985 77.696 132.265 77.696H134.185V90.88C133.588 91.0507 132.606 91.2213 131.241 91.392C129.961 91.5627 128.681 91.648 127.401 91.648C124.67 91.648 122.11 91.1787 119.721 90.24C117.417 89.3013 115.54 87.7227 114.089 85.504C112.638 83.2 111.913 79.9573 111.913 75.776L113.577 77.056C112.724 80.128 111.188 82.816 108.969 85.12C106.836 87.424 104.02 89.216 100.521 90.496C97.1077 91.776 93.1397 92.416 88.617 92.416ZM93.225 79.232C96.3824 79.232 99.1557 78.6347 101.545 77.44C103.934 76.16 105.812 74.3253 107.177 71.936C108.542 69.5467 109.225 66.7307 109.225 63.488V60.16L93.609 63.488C90.537 64.0853 88.1904 65.1093 86.569 66.56C85.033 67.9253 84.265 69.7173 84.265 71.936C84.265 74.24 85.033 76.032 86.569 77.312C88.105 78.592 90.3237 79.232 93.225 79.232ZM176.289 92.416C171.51 92.416 167.329 91.392 163.745 89.344C160.246 87.296 157.516 84.4373 155.553 80.768L155.169 90.88H136.865V0H156.065V32C157.857 28.8427 160.502 26.1973 164.001 24.064C167.5 21.8453 171.596 20.736 176.289 20.736C182.092 20.736 187.126 22.2293 191.393 25.216C195.66 28.1173 198.945 32.256 201.249 37.632C203.638 43.008 204.833 49.3227 204.833 56.576C204.833 63.8293 203.638 70.144 201.249 75.52C198.945 80.896 195.66 85.0773 191.393 88.064C187.126 90.9653 182.092 92.416 176.289 92.416ZM170.913 77.696C175.18 77.696 178.593 75.8613 181.153 72.192C183.798 68.4373 185.121 63.232 185.121 56.576C185.121 49.92 183.841 44.7573 181.281 41.088C178.721 37.3333 175.308 35.456 171.041 35.456C167.884 35.456 165.153 36.3093 162.849 38.016C160.63 39.6373 158.924 42.0267 157.729 45.184C156.62 48.3413 156.065 52.1387 156.065 56.576C156.065 60.928 156.62 64.6827 157.729 67.84C158.924 70.9973 160.63 73.4293 162.849 75.136C165.153 76.8427 167.841 77.696 170.913 77.696ZM228.885 90.88C223.253 90.88 218.858 89.472 215.701 86.656C212.544 83.84 210.965 79.2747 210.965 72.96V0H230.165V70.912C230.165 72.96 230.634 74.4107 231.573 75.264C232.512 76.1173 233.877 76.544 235.669 76.544H240.277V90.88H228.885ZM264.792 92.416C257.709 92.416 251.907 90.7947 247.384 87.552C242.947 84.224 240.728 79.616 240.728 73.728C240.728 67.6693 242.605 63.0187 246.36 59.776C250.2 56.448 255.832 54.016 263.256 52.48L285.4 48.128C285.4 43.6907 284.376 40.3627 282.328 38.144C280.365 35.84 277.507 34.688 273.752 34.688C270.083 34.688 267.224 35.5413 265.176 37.248C263.128 38.8693 261.805 41.3013 261.208 44.544L241.88 43.648C243.16 36.1387 246.531 30.464 251.992 26.624C257.539 22.6987 264.792 20.736 273.752 20.736C283.992 20.736 291.672 23.168 296.792 28.032C301.997 32.896 304.6 40.0213 304.6 49.408V72.832C304.6 74.7947 304.899 76.1173 305.496 76.8C306.179 77.3973 307.16 77.696 308.44 77.696H310.36V90.88C309.763 91.0507 308.781 91.2213 307.416 91.392C306.136 91.5627 304.856 91.648 303.576 91.648C300.845 91.648 298.285 91.1787 295.896 90.24C293.592 89.3013 291.715 87.7227 290.264 85.504C288.813 83.2 288.088 79.9573 288.088 75.776L289.752 77.056C288.899 80.128 287.363 82.816 285.144 85.12C283.011 87.424 280.195 89.216 276.696 90.496C273.283 91.776 269.315 92.416 264.792 92.416ZM269.4 79.232C272.557 79.232 275.331 78.6347 277.72 77.44C280.109 76.16 281.987 74.3253 283.352 71.936C284.717 69.5467 285.4 66.7307 285.4 63.488V60.16L269.784 63.488C266.712 64.0853 264.365 65.1093 262.744 66.56C261.208 67.9253 260.44 69.7173 260.44 71.936C260.44 74.24 261.208 76.032 262.744 77.312C264.28 78.592 266.499 79.232 269.4 79.232ZM338.706 90.88C331.623 90.88 326.418 89.2587 323.09 86.016C319.762 82.688 318.098 77.44 318.098 70.272V6.144H337.298V67.968C337.298 71.296 337.981 73.5573 339.346 74.752C340.797 75.9467 342.93 76.544 345.746 76.544H355.346V90.88H338.706ZM307.09 36.608V22.272H355.346V36.608H307.09ZM383.293 92.416C376.21 92.416 370.664 90.1547 366.653 85.632C362.728 81.024 360.765 74.624 360.765 66.432V22.272H379.965V61.952C379.965 67.2427 380.776 71.1253 382.397 73.6C384.018 75.9893 386.578 77.184 390.077 77.184C394.002 77.184 397.032 75.8613 399.165 73.216C401.384 70.4853 402.493 66.432 402.493 61.056V22.272H421.693V90.88H404.157L403.645 71.168L406.077 71.68C405.053 78.5067 402.621 83.6693 398.781 87.168C394.941 90.6667 389.778 92.416 383.293 92.416ZM432.115 90.88V22.272H450.291L450.931 42.24L449.523 41.856C450.632 34.944 452.595 29.952 455.411 26.88C458.227 23.808 462.11 22.272 467.059 22.272H473.331V38.144H467.059C463.475 38.144 460.531 38.6133 458.227 39.552C455.923 40.4907 454.174 41.984 452.979 44.032C451.87 46.08 451.315 48.8533 451.315 52.352V90.88H432.115ZM505.813 92.416C498.816 92.416 492.714 90.9653 487.509 88.064C482.389 85.0773 478.378 80.896 475.477 75.52C472.661 70.144 471.253 63.8293 471.253 56.576C471.253 49.3227 472.661 43.0507 475.477 37.76C478.378 32.384 482.389 28.2027 487.509 25.216C492.629 22.2293 498.688 20.736 505.685 20.736C512.512 20.736 518.442 22.2293 523.477 25.216C528.512 28.2027 532.394 32.4693 535.125 38.016C537.941 43.5627 539.349 50.176 539.349 57.856V61.696H491.093C491.349 67.1573 492.8 71.2107 495.445 73.856C498.176 76.5013 501.76 77.824 506.197 77.824C509.44 77.824 512.128 77.1413 514.261 75.776C516.48 74.4107 518.058 72.32 518.997 69.504L538.325 70.656C536.533 77.4827 532.736 82.816 526.933 86.656C521.13 90.496 514.09 92.416 505.813 92.416ZM491.093 49.92H519.637C519.381 44.8853 517.973 41.1307 515.413 38.656C512.938 36.1813 509.696 34.944 505.685 34.944C501.674 34.944 498.346 36.2667 495.701 38.912C493.141 41.472 491.605 45.1413 491.093 49.92Z" fill="white"/>
<path d="M545.839 90.88V0H577.199C591.962 0 603.311 3.968 611.247 11.904C619.183 19.7547 623.151 30.976 623.151 45.568C623.151 60.0747 619.226 71.2533 611.375 79.104C603.61 86.9547 592.474 90.88 577.967 90.88H545.839ZM565.295 74.496H577.199C585.988 74.496 592.474 72.1493 596.655 67.456C600.922 62.6773 603.055 55.3387 603.055 45.44C603.055 35.5413 600.922 28.2453 596.655 23.552C592.474 18.7733 585.988 16.384 577.199 16.384H565.295V74.496ZM629.564 90.88V0H664.892C676.156 0 684.775 2.00533 690.748 6.016C696.721 9.94133 699.708 16.1707 699.708 24.704C699.708 28.4587 698.94 31.744 697.404 34.56C695.868 37.2907 693.607 39.4667 690.62 41.088C687.719 42.7093 684.177 43.6907 679.996 44.032V43.776C687.591 44.288 693.393 46.5067 697.404 50.432C701.5 54.272 703.548 59.392 703.548 65.792C703.548 74.24 700.561 80.5547 694.588 84.736C688.7 88.832 680.252 90.88 669.244 90.88H629.564ZM649.02 75.008H668.348C673.041 75.008 676.796 74.0693 679.612 72.192C682.513 70.2293 683.964 67.328 683.964 63.488C683.964 59.648 682.513 56.7467 679.612 54.784C676.796 52.736 673.041 51.712 668.348 51.712H649.02V75.008ZM649.02 37.632H664.38C669.159 37.632 672.956 36.6933 675.772 34.816C678.673 32.9387 680.124 30.2507 680.124 26.752C680.124 22.9973 678.716 20.2667 675.9 18.56C673.169 16.768 669.329 15.872 664.38 15.872H649.02V37.632Z" fill="#F36F21"/>
</svg>
